<svg width="100%" height="100%" id="svg" viewBox="0 0 1440 490" xmlns="http://www.w3.org/2000/svg" class="transition duration-300 ease-in-out delay-150"><defs><linearGradient id="gradient" x1="0%" y1="50%" x2="100%" y2="50%"><stop offset="5%" stop-color="#17577b"></stop><stop offset="95%" stop-color="#be74b0"></stop></linearGradient></defs><path d="M 0,500 L 0,75 C 98.17224880382778,88.12918660287082 196.34449760765557,101.25837320574162 287,98 C 377.65550239234443,94.74162679425838 460.7942583732057,75.09569377990432 551,79 C 641.2057416267943,82.90430622009568 738.4784688995214,110.35885167464114 834,102 C 929.5215311004786,93.64114832535886 1023.2918660287082,49.4688995215311 1124,39 C 1224.7081339712918,28.5311004784689 1332.3540669856459,51.76555023923445 1440,75 L 1440,500 L 0,500 Z" stroke="none" stroke-width="0" fill="url(#gradient)" fill-opacity="0.265" class="transition-all duration-300 ease-in-out delay-150 path-0"></path><defs><linearGradient id="gradient" x1="0%" y1="50%" x2="100%" y2="50%"><stop offset="5%" stop-color="#17577b"></stop><stop offset="95%" stop-color="#be74b0"></stop></linearGradient></defs><path d="M 0,500 L 0,175 C 74.64114832535887,161.23923444976077 149.28229665071774,147.47846889952152 254,151 C 358.71770334928226,154.52153110047848 493.51196172248797,175.32535885167465 586,170 C 678.488038277512,164.67464114832535 728.6698564593302,133.22009569377985 817,140 C 905.3301435406698,146.77990430622015 1031.8086124401914,191.79425837320576 1142,204 C 1252.1913875598086,216.20574162679424 1346.0956937799042,195.60287081339712 1440,175 L 1440,500 L 0,500 Z" stroke="none" stroke-width="0" fill="url(#gradient)" fill-opacity="0.4" class="transition-all duration-300 ease-in-out delay-150 path-1"></path><defs><linearGradient id="gradient" x1="0%" y1="50%" x2="100%" y2="50%"><stop offset="5%" stop-color="#17577b"></stop><stop offset="95%" stop-color="#be74b0"></stop></linearGradient></defs><path d="M 0,500 L 0,275 C 93.21531100478472,255.74641148325358 186.43062200956945,236.49282296650716 283,249 C 379.56937799043055,261.50717703349284 479.4928229665071,305.77511961722485 581,306 C 682.5071770334929,306.22488038277515 785.5980861244019,262.4066985645933 877,249 C 968.4019138755981,235.5933014354067 1048.1148325358852,252.5980861244019 1140,262 C 1231.8851674641148,271.4019138755981 1335.9425837320573,273.20095693779905 1440,275 L 1440,500 L 0,500 Z" stroke="none" stroke-width="0" fill="url(#gradient)" fill-opacity="0.53" class="transition-all duration-300 ease-in-out delay-150 path-2"></path><defs><linearGradient id="gradient" x1="0%" y1="50%" x2="100%" y2="50%"><stop offset="5%" stop-color="#17577b"></stop><stop offset="95%" stop-color="#be74b0"></stop></linearGradient></defs><path d="M 0,500 L 0,375 C 69.16746411483251,387.6411483253588 138.33492822966502,400.2822966507177 248,392 C 357.665071770335,383.7177033492823 507.82775119617224,354.5119617224881 617,356 C 726.1722488038278,357.4880382775119 794.3540669856458,389.66985645933016 880,400 C 965.6459330143542,410.33014354066984 1068.755980861244,398.8086124401914 1165,391 C 1261.244019138756,383.1913875598086 1350.622009569378,379.0956937799043 1440,375 L 1440,500 L 0,500 Z" stroke="none" stroke-width="0" fill="url(#gradient)" fill-opacity="1" class="transition-all duration-300 ease-in-out delay-150 path-3"></path></svg>