<svg width="130" height="30" viewBox="0 0 130 30" fill="none" xmlns="http://www.w3.org/2000/svg">
<path d="M1.55183 9.79998C1.55183 7.07998 2.67183 4.86664 4.91183 3.15998C7.17849 1.45331 10.1385 0.599976 13.7918 0.599976C17.4718 0.599976 20.4718 1.49331 22.7918 3.27998C25.1385 5.06664 26.3118 6.93331 26.3118 8.87998C26.3118 9.11998 26.2185 9.33331 26.0318 9.51998C25.8718 9.67998 25.6852 9.75998 25.4718 9.75998H17.4718C16.8585 9.75998 16.2985 9.53331 15.7918 9.07998C15.2852 8.62664 14.6052 8.39998 13.7518 8.39998C12.4718 8.39998 11.8318 8.77331 11.8318 9.51998C11.8318 9.91998 12.1385 10.2533 12.7518 10.52C13.3918 10.7866 14.5652 11.0266 16.2718 11.24C20.2452 11.7466 23.0718 12.68 24.7518 14.04C26.4585 15.3733 27.3118 17.4133 27.3118 20.16C27.3118 22.88 26.0585 25.1066 23.5518 26.84C21.0718 28.5466 17.8185 29.4 13.7918 29.4C9.76516 29.4 6.60516 28.5733 4.31183 26.92C2.01849 25.2666 0.871826 23.2533 0.871826 20.88C0.871826 20.64 0.951826 20.44 1.11183 20.28C1.29849 20.0933 1.51183 20 1.75183 20H9.35183C9.91183 20 10.5252 20.2666 11.1918 20.8C11.8852 21.3333 12.8318 21.6 14.0318 21.6C16.0318 21.6 17.0318 21.2266 17.0318 20.48C17.0318 20 16.6718 19.64 15.9518 19.4C15.2318 19.1333 13.8718 18.8666 11.8718 18.6C4.99183 17.6933 1.55183 14.76 1.55183 9.79998Z" fill="white"/>
<path d="M47.7 0.999975H55.54C55.8333 0.999975 56.0866 1.10664 56.3 1.31998C56.5133 1.53331 56.62 1.78664 56.62 2.07998V18.16C56.62 21.8933 55.46 24.7066 53.14 26.6C50.82 28.4666 47.66 29.4 43.66 29.4C39.6866 29.4 36.5266 28.4666 34.18 26.6C31.86 24.7333 30.7 21.92 30.7 18.16V2.07998C30.7 1.78664 30.8066 1.53331 31.02 1.31998C31.2333 1.10664 31.4866 0.999975 31.78 0.999975H39.62C39.9133 0.999975 40.1666 1.10664 40.38 1.31998C40.5933 1.53331 40.7 1.78664 40.7 2.07998V18.28C40.7 20.3333 41.6866 21.36 43.66 21.36C45.6333 21.36 46.62 20.3333 46.62 18.28V2.07998C46.62 1.78664 46.7266 1.53331 46.94 1.31998C47.1533 1.10664 47.4066 0.999975 47.7 0.999975Z" fill="white"/>
<path d="M70.6525 29H62.4925C62.1991 29 61.9458 28.8933 61.7325 28.68C61.5191 28.4666 61.4125 28.2133 61.4125 27.92V2.07998C61.4125 1.78664 61.5191 1.53331 61.7325 1.31998C61.9458 1.10664 62.1991 0.999975 62.4925 0.999975H70.6525C70.9458 0.999975 71.1991 1.10664 71.4125 1.31998C71.6258 1.53331 71.7325 1.78664 71.7325 2.07998V27.92C71.7325 28.2133 71.6258 28.4666 71.4125 28.68C71.1991 28.8933 70.9458 29 70.6525 29Z" fill="white"/>
<path d="M76.6003 0.999975H100.04C100.334 0.999975 100.587 1.10664 100.8 1.31998C101.014 1.53331 101.12 1.78664 101.12 2.07998V8.51998C101.12 8.81331 101.014 9.06664 100.8 9.27998C100.587 9.49331 100.334 9.59998 100.04 9.59998H93.4003V27.92C93.4003 28.2133 93.2936 28.4666 93.0803 28.68C92.8669 28.8933 92.6136 29 92.3203 29H84.3203C84.0269 29 83.7736 28.8933 83.5603 28.68C83.3469 28.4666 83.2403 28.2133 83.2403 27.92V9.59998H76.6003C76.3069 9.59998 76.0536 9.49331 75.8403 9.27998C75.6269 9.06664 75.5203 8.81331 75.5203 8.51998V2.07998C75.5203 1.78664 75.6269 1.53331 75.8403 1.31998C76.0536 1.10664 76.3069 0.999975 76.6003 0.999975Z" fill="white"/>
<path d="M104.608 0.999975H128.048C128.341 0.999975 128.595 1.10664 128.808 1.31998C129.021 1.53331 129.128 1.78664 129.128 2.07998V8.51998C129.128 8.81331 129.021 9.06664 128.808 9.27998C128.595 9.49331 128.341 9.59998 128.048 9.59998H121.408V27.92C121.408 28.2133 121.301 28.4666 121.088 28.68C120.875 28.8933 120.621 29 120.328 29H112.328C112.035 29 111.781 28.8933 111.568 28.68C111.355 28.4666 111.248 28.2133 111.248 27.92V9.59998H104.608C104.315 9.59998 104.061 9.49331 103.848 9.27998C103.635 9.06664 103.528 8.81331 103.528 8.51998V2.07998C103.528 1.78664 103.635 1.53331 103.848 1.31998C104.061 1.10664 104.315 0.999975 104.608 0.999975Z" fill="white"/>
</svg>
