<svg xmlns="http://www.w3.org/2000/svg" width="50" height="50" viewBox="0 0 61 60" fill="none">
  <path fill-rule="evenodd" clip-rule="evenodd" d="M53.2498 41.8119C50.5516 38.982 50.1132 34.563 51.9039 31.191C53.4202 28.3356 54.2703 25.1331 54.2703 21.75C54.2703 9.738 43.5544 0 30.3355 0C17.1169 0 6.40072 9.738 6.40072 21.75C6.40072 25.0566 7.21286 28.191 8.66545 30.9972C10.4191 34.3851 9.93317 38.8002 7.2046 41.6058C3.82006 45.0864 1.38036 49.3434 0.250971 54.0453C-0.526827 57.2826 2.50315 60 6.14982 60H54.1062C57.7529 60 60.7832 57.2829 60.0054 54.0453C58.8978 49.4358 56.5314 45.2535 53.2498 41.8119Z" fill="white"/>
</svg>
